<?xml version="1.0" encoding="utf-8"?>
<!-- Generator: Adobe Illustrator 24.1.0, SVG Export Plug-In . SVG Version: 6.00 Build 0)  -->
<svg version="1.1" id="Layer_1" xmlns="http://www.w3.org/2000/svg" xmlns:xlink="http://www.w3.org/1999/xlink" x="0px" y="0px"
	 viewBox="0 0 213.2 142.1" style="enable-background:new 0 0 213.2 142.1;" xml:space="preserve">
<style type="text/css">
	.st0{fill:#164194;}
	.st1{fill:#FFED00;}
</style>
<path class="st0" d="M106.5,110.1l1.7,5.4h5.6l-4.6,3.3l1.7,5.3l-4.5-3.3l-4.5,3.3l1.7-5.3l-4.6-3.3l5.6,0L106.5,110.1z M83.3,104
	l1.7,5.4h5.6l-4.6,3.3l1.7,5.3l-4.5-3.3l-4.5,3.3l1.7-5.3l-4.6-3.3l5.6,0L83.3,104z M129.8,104l1.7,5.4h5.6l-4.6,3.3l1.7,5.3
	l-4.5-3.3l-4.5,3.3l1.7-5.3l-4.6-3.3l5.6,0L129.8,104z M66.2,86.9l1.7,5.4h5.6L69,95.5l1.7,5.3l-4.5-3.3l-4.5,3.3l1.7-5.3l-4.6-3.3
	l5.6,0L66.2,86.9z M146.9,86.9l1.7,5.4h5.6l-4.6,3.3l1.7,5.3l-4.5-3.3l-4.5,3.3l1.7-5.3l-4.6-3.3l5.6,0L146.9,86.9z M60,63.6
	l1.7,5.4h5.6l-4.6,3.3l1.7,5.3L60,74.3l-4.5,3.3l1.7-5.3l-4.6-3.3l5.6,0L60,63.6z M153,63.5l1.7,5.4h5.6l-4.6,3.3l1.7,5.3l-4.5-3.3
	l-4.5,3.3l1.7-5.3l-4.6-3.3l5.6,0L153,63.5z M66.2,40.3l1.7,5.4h5.6L69,49l1.7,5.3L66.2,51l-4.5,3.3l1.7-5.3l-4.6-3.3l5.6,0
	L66.2,40.3z M146.9,40.3l1.7,5.4h5.6l-4.6,3.3l1.7,5.3l-4.5-3.3l-4.5,3.3l1.7-5.3l-4.6-3.3l5.6,0L146.9,40.3z M129.9,23.3l1.7,5.4
	h5.6l-4.6,3.3l1.7,5.3l-4.5-3.3l-4.5,3.3l1.7-5.3l-4.6-3.3l5.6,0L129.9,23.3z M83.3,23.2l1.7,5.4h5.6L86,31.9l1.7,5.3l-4.5-3.3
	l-4.5,3.3l1.7-5.3l-4.6-3.3l5.6,0L83.3,23.2z M106.5,17l1.7,5.4h5.6l-4.6,3.3L111,31l-4.5-3.3L102,31l1.7-5.3l-4.6-3.3l5.6,0
	L106.5,17z M0,142.1h213.2V0H0V142.1z"/>
<polygon class="st1" points="102,31 106.5,27.7 111,31 109.3,25.7 113.9,22.4 108.3,22.4 106.5,17 104.8,22.4 99.2,22.4 103.8,25.7 
	"/>
<polygon class="st1" points="78.8,37.2 83.3,33.9 87.8,37.2 86,31.9 90.6,28.6 85,28.6 83.3,23.2 81.5,28.6 75.9,28.6 80.5,31.9 "/>
<polygon class="st1" points="61.7,54.3 66.2,51 70.7,54.3 69,49 73.6,45.7 68,45.7 66.2,40.3 64.5,45.7 58.9,45.7 63.4,49 "/>
<polygon class="st1" points="55.5,77.5 60,74.3 64.5,77.5 62.8,72.2 67.3,68.9 61.7,68.9 60,63.6 58.3,69 52.6,68.9 57.2,72.2 "/>
<polygon class="st1" points="68,92.3 66.2,86.9 64.5,92.3 58.9,92.3 63.4,95.5 61.7,100.9 66.2,97.6 70.7,100.9 69,95.5 73.6,92.3 
	"/>
<polygon class="st1" points="85,109.3 83.3,104 81.6,109.3 75.9,109.3 80.5,112.6 78.8,117.9 83.3,114.6 87.8,117.9 86.1,112.6 
	90.6,109.3 "/>
<polygon class="st1" points="108.3,115.5 106.5,110.1 104.8,115.5 99.2,115.5 103.8,118.8 102,124.1 106.5,120.8 111,124.1 
	109.3,118.8 113.9,115.5 "/>
<polygon class="st1" points="125.3,117.9 129.8,114.6 134.3,117.9 132.6,112.6 137.1,109.3 131.5,109.3 129.8,104 128.1,109.3 
	122.4,109.3 127,112.6 "/>
<polygon class="st1" points="142.4,100.9 146.9,97.6 151.4,100.9 149.6,95.5 154.2,92.3 148.6,92.3 146.9,86.9 145.1,92.3 
	139.5,92.3 144.1,95.5 "/>
<polygon class="st1" points="151.3,68.9 145.7,68.9 150.2,72.2 148.5,77.5 153,74.2 157.5,77.5 155.8,72.2 160.4,68.9 154.8,68.9 
	153,63.5 "/>
<polygon class="st1" points="142.4,54.2 146.9,50.9 151.4,54.2 149.6,48.9 154.2,45.6 148.6,45.6 146.9,40.3 145.1,45.6 139.5,45.6 
	144.1,48.9 "/>
<polygon class="st1" points="125.4,37.2 129.9,33.9 134.4,37.2 132.6,31.9 137.2,28.6 131.6,28.6 129.9,23.3 128.1,28.6 122.5,28.6 
	127.1,31.9 "/>
</svg>
