<svg id="Layer_1" data-name="Layer 1" xmlns="http://www.w3.org/2000/svg" xmlns:xlink="http://www.w3.org/1999/xlink" viewBox="0 0 12 12.01365">
  <defs>
   <style type="text/css">
          svg {
          fill: #6B6863;
          -webkit-transition: fill cubic-bezier(0.25, 0.46, 0.45, 0.94) 400ms;
          -moz-transition: fill cubic-bezier(0.25, 0.46, 0.45, 0.94) 400ms;
          transition: fill cubic-bezier(0.25, 0.46, 0.45, 0.94) 400ms;
          }
          svg:hover {
          fill: #A36846;
          }
      </style>
    <clipPath id="clip-path">
      <rect class="cls-1" y="0.01136" width="12" height="12"/>
    </clipPath>
  </defs>
  <title>icons</title>
  <g class="cls-2">
    <g>
      <path class="cls-3" d="M11.7047,1.69416a2.25773,2.25773,0,0,0-.5485-.8414,2.25784,2.25784,0,0,0-.8414-.5484A3.98519,3.98519,0,0,0,8.95547.05356C8.18672.01836,7.95469.01136,6,.01136s-2.18672.007-2.95781.0422a4.04216,4.04216,0,0,0-1.35938.2531,2.25734,2.25734,0,0,0-.8414.5485,2.27151,2.27151,0,0,0-.5461.839,3.98525,3.98525,0,0,0-.25078,1.3594C.007,3.82466,0,4.05666,0,6.01136s.007,2.1867.04219,2.95781A4.12129,4.12129,0,0,0,.293,10.32856a2.25792,2.25792,0,0,0,.54844.8414,2.25807,2.25807,0,0,0,.8414.5484,4.03019,4.03019,0,0,0,1.35938.2532c.77109.0351,1.00312.0421,2.95781.0421s2.18672-.007,2.95781-.0421a4.044,4.044,0,0,0,1.35939-.2532,2.42364,2.42364,0,0,0,1.3898-1.3898,4.02991,4.02991,0,0,0,.2532-1.35939c.0351-.77111.0421-1.00311.0421-2.95781s-.007-2.1867-.0421-2.9578A4.08809,4.08809,0,0,0,11.7047,1.69416ZM6,9.76836a3.7582,3.7582,0,1,1,3.757-3.7593A3.75846,3.75846,0,0,1,6,9.76836Zm3.907-6.7851a.8789.8789,0,1,1,.87887-.8789A.87926.87926,0,0,1,9.907,2.98326Z"/>
      <path class="cls-3" d="M8.43987,6.01136A2.43985,2.43985,0,1,1,6,3.57156,2.43956,2.43956,0,0,1,8.43987,6.01136Z"/>
    </g>
  </g>
</svg>
