<?xml version="1.0" encoding="utf-8"?>
<!-- Generator: Adobe Illustrator 24.0.1, SVG Export Plug-In . SVG Version: 6.00 Build 0)  -->
<svg version="1.1" id="Layer_1" xmlns="http://www.w3.org/2000/svg" xmlns:xlink="http://www.w3.org/1999/xlink" x="0px" y="0px"
	 viewBox="0 0 12 80.3" style="enable-background:new 0 0 12 80.3;" xml:space="preserve">
<style type="text/css">
	.st0{clip-path:url(#SVGID_2_);}
	.st1{fill:#6B6863;}
	.st2{clip-path:url(#SVGID_4_);}
</style>
<g>
	<defs>
		<rect id="SVGID_1_" y="48" width="12" height="12"/>
	</defs>
	<clipPath id="SVGID_2_">
		<use xlink:href="#SVGID_1_"  style="overflow:visible;"/>
	</clipPath>
	<g class="st0">
		<path class="st1" d="M11.7,49.7c-0.1-0.3-0.3-0.6-0.5-0.8c-0.2-0.2-0.5-0.4-0.8-0.5C10.1,48.2,9.7,48.1,9,48c-0.8,0-1,0-3,0
			s-2.2,0-3,0c-0.7,0-1.1,0.2-1.4,0.3c-0.3,0.1-0.6,0.3-0.8,0.5c-0.2,0.2-0.4,0.5-0.5,0.8C0.2,49.9,0.1,50.3,0,51c0,0.8,0,1,0,3
			s0,2.2,0,3c0,0.7,0.2,1.1,0.3,1.4c0.1,0.3,0.3,0.6,0.5,0.8c0.2,0.2,0.5,0.4,0.8,0.5C1.9,59.8,2.3,59.9,3,60c0.8,0,1,0,3,0
			s2.2,0,3,0c0.7,0,1.1-0.2,1.4-0.3c0.6-0.2,1.1-0.8,1.4-1.4c0.1-0.3,0.2-0.6,0.3-1.4c0-0.8,0-1,0-3s0-2.2,0-3
			C11.9,50.3,11.8,49.9,11.7,49.7z M6,57.8c-2.1,0-3.8-1.7-3.8-3.8s1.7-3.8,3.8-3.8s3.8,1.7,3.8,3.8C9.8,56.1,8.1,57.8,6,57.8z
			 M9.9,51C9.4,51,9,50.6,9,50.1c0-0.5,0.4-0.9,0.9-0.9c0.5,0,0.9,0.4,0.9,0.9C10.8,50.6,10.4,51,9.9,51z"/>
		<path class="st1" d="M8.4,54c0,1.3-1.1,2.4-2.4,2.4c-1.3,0-2.4-1.1-2.4-2.4s1.1-2.4,2.4-2.4C7.3,51.6,8.4,52.7,8.4,54z"/>
	</g>
</g>
<g>
	<defs>
		<rect id="SVGID_3_" y="24" width="12" height="12"/>
	</defs>
	<clipPath id="SVGID_4_">
		<use xlink:href="#SVGID_3_"  style="overflow:visible;"/>
	</clipPath>
	<g class="st2">
		<path class="st1" d="M8,26h1.1v-1.9c-0.2,0-0.8-0.1-1.6-0.1c-1.6,0-2.7,1-2.7,2.8v1.7H3.1v2.1h1.7V36H7v-5.4h1.7l0.3-2.1H7V27
			C7,26.4,7.1,26,8,26z"/>
	</g>
</g>
<path class="st1" d="M12,12L12,12l0-4.4c0-2.2-0.5-3.8-3-3.8c-1.2,0-2,0.7-2.4,1.3h0V4H4.2v8h2.5V8C6.7,7,6.9,6,8.2,6
	c1.3,0,1.3,1.2,1.3,2.1V12H12z"/>
<path class="st1" d="M0.2,4h2.5v8H0.2V4z"/>
<path class="st1" d="M1.4,0C0.6,0,0,0.6,0,1.4c0,0.8,0.6,1.5,1.4,1.5c0.8,0,1.4-0.7,1.4-1.5C2.9,0.6,2.2,0,1.4,0z"/>
<path class="st1" d="M8,76.2l4,2.6v-5.2L8,76.2z"/>
<path class="st1" d="M0,73.5v5.2l4-2.6L0,73.5z"/>
<path class="st1" d="M11.2,72H0.7c-0.4,0-0.7,0.3-0.7,0.6l6,3.9l6-3.9C11.9,72.3,11.6,72,11.2,72z"/>
<path class="st1" d="M7.3,76.6l-1.1,0.7c-0.1,0-0.1,0.1-0.2,0.1s-0.1,0-0.2-0.1l-1.1-0.7l-4.7,3c0.1,0.4,0.4,0.6,0.7,0.6h10.5
	c0.4,0,0.7-0.3,0.7-0.6L7.3,76.6z"/>
</svg>
