<svg id="Layer_1" data-name="Layer 1" xmlns="http://www.w3.org/2000/svg" viewBox="0 0 12 8.25">
  <defs>
      <style type="text/css">
          svg {
          fill: #6B6863;
          -webkit-transition: fill cubic-bezier(0.25, 0.46, 0.45, 0.94) 400ms;
          -moz-transition: fill cubic-bezier(0.25, 0.46, 0.45, 0.94) 400ms;
          transition: fill cubic-bezier(0.25, 0.46, 0.45, 0.94) 400ms;
          }
          svg:hover {
          fill: #A36846;
          }
      </style>
  </defs>
  <title>icons</title>
  <path class="cls-1" d="M7.95447,4.1865,12,6.744V1.521Z"/>
  <path class="cls-1" d="M0,1.521V6.744L4.0455,4.1865Z"/>
  <path class="cls-1" d="M11.2499,0H.75a.7407.7407,0,0,0-.7275.6382L6,4.5765,11.9774.6382A.74062.74062,0,0,0,11.2499,0Z"/>
  <path class="cls-1" d="M7.26754,4.6395l-1.06125.699a.3766.3766,0,0,1-.4125,0L4.73254,4.6387.024,7.617a.73954.73954,0,0,0,.726.633h10.5a.73946.73946,0,0,0,.726-.633Z"/>
</svg>
