<?xml version="1.0" encoding="utf-8"?>
<!-- Generator: Adobe Illustrator 24.1.0, SVG Export Plug-In . SVG Version: 6.00 Build 0)  -->
<svg version="1.1" id="Capa_1" xmlns="http://www.w3.org/2000/svg" xmlns:xlink="http://www.w3.org/1999/xlink" x="0px" y="0px"
	 viewBox="0 0 117.4 80" style="enable-background:new 0 0 117.4 80;" xml:space="preserve">
<style type="text/css">
	.st0{fill:#6B6863;}
	.st1{fill:#D0B38B;}
</style>
<g>
	<path class="st0" d="M6.8,79.2l-1-5.3L4.2,79l-0.6,0.1l-3-4.5l0.5,5.3L0.5,80L0,73.2l0.9-0.1L4,78l1.8-5.6l0.8-0.1l1.2,6.7
		L6.8,79.2z"/>
	<path class="st0" d="M17.9,77.7c-0.5-0.2-1-0.6-1.3-1.1c-0.3-0.6-0.5-1.2-0.6-1.8c-0.1-0.7,0.1-1.3,0.3-1.9
		c0.5-1.1,1.6-1.9,2.9-2.1c0.7-0.1,1.3,0,1.9,0.3c0.5,0.2,1,0.6,1.3,1.1c0.3,0.6,0.5,1.2,0.6,1.8c0.1,1.3-0.4,2.6-1.5,3.3
		c-0.5,0.4-1.1,0.6-1.7,0.6C19.1,78,18.5,78,17.9,77.7z M21,76.9c0.3-0.3,0.6-0.8,0.7-1.2c0.1-0.5,0.2-1,0.1-1.5
		c0-0.5-0.2-1-0.4-1.5c-0.2-0.4-0.5-0.8-0.9-1c-0.4-0.2-0.9-0.4-1.3-0.3c-0.5,0-0.9,0.2-1.2,0.5c-0.4,0.3-0.6,0.7-0.7,1.2
		c-0.2,0.5-0.2,1-0.2,1.5c0,0.5,0.2,1,0.4,1.5c0.2,0.4,0.5,0.8,0.9,1c0.4,0.3,0.9,0.4,1.3,0.3C20.2,77.4,20.6,77.3,21,76.9L21,76.9z
		"/>
	<path class="st0" d="M32.5,76.3c-0.5-0.6-0.8-1.3-0.8-2.1l-0.2-4.1l1,0l0.2,3.7c0,0.7,0.2,1.3,0.5,1.9c0.3,0.5,0.9,0.7,1.4,0.7
		c0.6,0,1.1-0.2,1.5-0.7c0.3-0.6,0.4-1.2,0.3-1.8l-0.2-4l0.6,0l0.2,4.1c0.1,0.8-0.1,1.5-0.5,2.1c-0.5,0.6-1.2,0.9-1.9,0.9
		C33.8,77,33.1,76.8,32.5,76.3z"/>
	<path class="st0" d="M51.5,69.3l0.1,6.8h-0.5L46.6,71l0.1,5.2h-0.6l-0.1-6.8h0.5l4.5,5.1l-0.1-5.2H51.5z"/>
	<path class="st0" d="M65.1,69.3v0.6c-0.1,0-0.2,0-0.3,0c-0.1,0-0.2,0-0.3,0H63l0,6.3h-1l0-6.3h-1.3c0,0-0.3,0-0.8,0.1v-0.6
		L65.1,69.3z"/>
	<path class="st0" d="M76.2,74.4l-2.6-0.1l-0.8,2l-0.8,0l3-6.7h0.6l2.3,6.9l-1.1,0L76.2,74.4z M76,73.9l-1-3.2l-1.2,3.1L76,73.9z"/>
	<path class="st0" d="M90.8,74.2c0.3,0.3,0.4,0.8,0.4,1.2c0,0.6-0.3,1.2-0.9,1.5c-0.7,0.3-1.4,0.5-2.1,0.4c-0.6,0-1.1-0.1-1.7-0.2
		l0.5-6.8c0.5,0,1,0,1.5,0c1.7,0.1,2.6,0.7,2.5,1.8c0,0.3-0.1,0.7-0.4,1c-0.2,0.3-0.6,0.5-0.9,0.5C90.1,73.6,90.5,73.8,90.8,74.2z
		 M89.5,76.4c0.4-0.2,0.6-0.7,0.6-1.1c0-1-0.5-1.5-1.8-1.6l-0.6,0l-0.2,3c0.2,0,0.5,0.1,0.7,0.1C88.6,76.8,89.1,76.7,89.5,76.4z
		 M89.5,71c-0.3-0.3-0.7-0.4-1.1-0.4h-0.5l-0.2,2.6l0.5,0c1,0.1,1.6-0.4,1.6-1.3C89.9,71.6,89.8,71.3,89.5,71z"/>
	<path class="st0" d="M103.8,77.8l0,0.6l-4-0.4l0.7-6.8l4,0.4l0,0.6c-0.7-0.1-1.3-0.2-2-0.3l-0.9-0.1l-0.3,2.6l0.4,0
		c0.7,0.1,1.3,0.1,2,0.1l0,0.6c-0.6-0.1-1.3-0.2-2-0.3l-0.4,0l-0.3,2.7l1,0.1C102.5,77.7,103.1,77.8,103.8,77.8z"/>
	<path class="st0" d="M115.8,79.9l-1.3-3.1h-0.2c0,0-0.3,0-0.6-0.1l-0.4,2.9l-1-0.1l0.9-6.8c0.5,0,1,0,1.5,0.1
		c0.7,0.1,1.5,0.3,2.1,0.8c0.5,0.4,0.7,1,0.5,1.6c0,0.4-0.2,0.8-0.5,1.1c-0.3,0.3-0.7,0.5-1.2,0.5l1.5,3.3L115.8,79.9z M115.6,76
		c0.4-0.3,0.6-0.7,0.6-1.1c0.1-0.4,0-0.9-0.2-1.2c-0.3-0.3-0.7-0.5-1.2-0.5c-0.2,0-0.4,0-0.6,0l-0.4,3.1c0.1,0,0.3,0,0.4,0.1
		C114.7,76.4,115.2,76.3,115.6,76z"/>
</g>
<path class="st1" d="M89.6,30.3c0-3.1-0.8-6.1-2.3-8.8c-0.8-1.4-1.7-2.6-2.8-3.7c0,0-0.1-0.1-0.2-0.2c0-0.1,0-0.2,0-0.3l0,0
	c0-0.5,0.1-1,0.1-1.6c0-0.2,0-0.4,0-0.6v-0.4c0.1-2.7-0.6-5.3-2-7.6c-1.2-2.2-3.1-4-5.2-5.3c-0.7-0.4-1.4-0.7-2.1-1
	C73.5,0.3,71.7,0,70,0c-0.9,0-1.9,0-2.8,0.2c-1.6,0.3-3.1,0.7-4.6,1.5c-1.9,1.1-3.6,2.7-4.7,4.6l0,0c-1.1-1.9-2.7-3.5-4.7-4.6
	c-1.4-0.8-3-1.3-4.6-1.5C47.8,0,46.8,0,45.9,0c-1.8,0-3.5,0.3-5.2,0.8c-0.7,0.3-1.5,0.6-2.1,1c-2.2,1.3-4,3.1-5.2,5.3
	c-1.3,2.3-2,4.9-2,7.6v0.4c0,0.2,0,0.4,0,0.6c0,0.5,0,1.1,0.1,1.6l0,0c0,0.1,0,0.2,0,0.3c0,0-0.1,0.1-0.2,0.2
	c-1.1,1.1-2,2.3-2.8,3.7c-1.5,2.7-2.3,5.7-2.3,8.8v2.9c0,2.7,0.6,5.3,1.8,7.7c0.2,0.3,0.3,0.6,0.5,1c1.5,2.6,3.7,4.8,6.3,6.3
	c1,0.6,2,1,3.1,1.4c0.3,0.1,0.7,0.2,1,0.3c0-0.4,0-0.8-0.1-1.3c-0.2-2.9-0.8-5.7-1.8-8.4c-1-2.7-2.6-5.2-4.7-7.3v2.1
	c1.4,1.7,2.6,3.6,3.4,5.7c0.8,2.3,1.4,4.7,1.6,7.1c-0.4-0.2-0.7-0.5-1-0.7c-2-1.6-3.6-3.7-4.6-6.1c-0.4-0.9-0.7-1.7-0.9-2.6
	c-0.2-0.9-0.4-1.9-0.5-2.9c-0.1-0.4-0.1-0.8-0.1-1.2c0-0.4,0-0.7,0-1v-3c0-1.8,0.2-3.6,0.7-5.3c0.2-0.9,0.5-1.8,0.9-2.6
	c0.1-0.4,0.3-0.7,0.5-1.1c0.7-1.5,1.7-2.9,3-4.1c0.4-0.3,0.7-0.7,1.1-1c2-1.6,4.5-2.4,7-2.4c2.6-0.1,5.1,0.8,7.2,2.3
	c1.7,1.4,3,3.2,3.9,5.3c0.1,0.3,0.2,0.6,0.3,0.9c0.4,1,0.7,2,1,3.1v17.7c0.1,2-0.2,4-0.9,5.9c-0.6,1.5-1.7,2.7-3.1,3.5l0.8,1.5
	c2.1-0.9,4-2.3,5.3-4.1v0l0,0v0c1.3,1.9,3.2,3.3,5.3,4.1l0.8-1.5c-1.4-0.8-2.4-2-3.1-3.5c-0.7-1.9-1-3.9-0.9-5.9V25.4
	c0.2-1.1,0.5-2.1,1-3.1c0.1-0.3,0.2-0.6,0.3-0.9c0.8-2.1,2.2-3.9,3.9-5.3c2.1-1.6,4.6-2.4,7.2-2.3c2.5,0,5,0.8,7,2.4
	c0.4,0.3,0.7,0.6,1.1,1c1.2,1.2,2.2,2.5,3,4.1c0.2,0.4,0.3,0.7,0.5,1.1c0.4,0.9,0.7,1.7,0.9,2.6c0.5,1.7,0.7,3.5,0.7,5.3v3
	c0,0.4,0,0.7,0,1c0,0.4,0,0.8-0.1,1.2c-0.1,1-0.3,1.9-0.5,2.9c-0.2,0.9-0.5,1.8-0.9,2.6c-1,2.4-2.5,4.5-4.6,6.1
	c-0.3,0.3-0.7,0.5-1,0.7c0.2-2.4,0.8-4.8,1.6-7.1c0.8-2.1,1.9-4,3.4-5.7V33c-2,2.1-3.6,4.6-4.7,7.3c-1,2.7-1.6,5.5-1.8,8.4
	c0,0.4,0,0.8-0.1,1.3c0.3-0.1,0.7-0.2,1-0.3c1.1-0.4,2.1-0.8,3.1-1.4c2.6-1.5,4.8-3.7,6.3-6.3c0.2-0.3,0.4-0.6,0.5-1
	C90.1,36.4,89.6,30.3,89.6,30.3z M56,17.7c-0.1-0.1-0.1-0.2-0.2-0.2l0,0c-1-1-2-1.8-3.2-2.5c-2.8-1.4-6-2.1-9.2-2.1
	c-2.9,0-5.7,0.7-8.2,2.1c-0.1,0-0.1,0.1-0.2,0.1v-0.7c0-2.3,0.4-4.5,1.3-6.6c0.8-2,2.1-3.7,3.7-5c0.6-0.5,1.2-0.9,1.9-1.2
	c2.7-1.1,5.7-1,8.3,0.3c0.5,0.2,0.9,0.5,1.3,0.9c1.6,1.3,2.8,3.1,3.5,5.1c0,0.2,0.1,0.4,0.2,0.5c0.3,0.9,0.5,1.9,0.7,2.9
	c0,0.1,0,0.1,0,0.2l0,0c0,0.1,0,0.2,0,0.3C56,11.7,56,17.7,56,17.7z M81,15.1c-0.1,0-0.1-0.1-0.2-0.1c-2.5-1.4-5.3-2.2-8.2-2.1
	c-3.2-0.1-6.3,0.6-9.2,2.1c-1.2,0.7-2.3,1.5-3.2,2.5l0,0l-0.2,0.2v-6c0-0.1,0-0.2,0-0.3l0,0c0-0.1,0-0.1,0-0.2
	c0.2-1,0.4-1.9,0.7-2.9c0-0.2,0.1-0.3,0.2-0.5c0.7-2,1.9-3.7,3.5-5.1c0.4-0.3,0.9-0.6,1.3-0.9c1.4-0.7,2.9-1.1,4.5-1
	c1.3,0,2.6,0.3,3.8,0.8c0.7,0.3,1.3,0.7,1.9,1.2c1.7,1.3,3,3,3.7,5c0.9,2.1,1.3,4.3,1.3,6.6L81,15.1z"/>
</svg>
